<svg xmlns="http://www.w3.org/2000/svg" version="1.1" xmlns:xlink="http://www.w3.org/1999/xlink" viewBox="0 0 200 200" width="200" height="200"><metadata><rdf:RDF xmlns:rdf="http://www.w3.org/1999/02/22-rdf-syntax-ns#" xmlns:dc="http://purl.org/dc/elements/1.1/"><rdf:Description><dc:creator>RealFaviconGenerator</dc:creator><dc:source>https://realfavicongenerator.net</dc:source></rdf:Description></rdf:RDF></metadata><rect width="200" height="200" fill="url('#gradient')"></rect><defs><linearGradient id="gradient" gradientTransform="rotate(45 0.5 0.5)"><stop offset="0%" stop-color="#0000ff"></stop><stop offset="100%" stop-color="#000000"></stop></linearGradient></defs><g><g fill="#ffffff" transform="matrix(8.199288256227758,0,0,8.199288256227758,1.1977913146341308,158.2603147649256)" stroke="#5f5f5f" stroke-width="0.2"><path d="M9.89-8.57L9.89-6.03L4.50-6.03L4.50-2.64L10.87-2.64L10.87 0L1.07 0L1.07-14.22L10.89-14.22L10.89-11.57L4.50-11.57L4.50-8.57L9.89-8.57ZM19.60-3.78L19.60-3.78Q19.60-4.53 19.07-4.95Q18.54-5.37 17.20-5.82Q15.86-6.27 15.01-6.69L15.01-6.69Q12.25-8.05 12.25-10.42L12.25-10.42Q12.25-11.60 12.93-12.50Q13.62-13.41 14.88-13.91Q16.14-14.41 17.71-14.41L17.71-14.41Q19.25-14.41 20.46-13.87Q21.68-13.32 22.35-12.31Q23.03-11.30 23.03-10L23.03-10L19.61-10Q19.61-10.87 19.08-11.35Q18.54-11.83 17.64-11.83L17.64-11.83Q16.72-11.83 16.19-11.42Q15.65-11.02 15.65-10.39L15.65-10.39Q15.65-9.84 16.24-9.40Q16.83-8.96 18.30-8.48Q19.78-8.01 20.72-7.46L20.72-7.46Q23.03-6.13 23.03-3.80L23.03-3.80Q23.03-1.93 21.62-0.87Q20.21 0.20 17.76 0.20L17.76 0.20Q16.04 0.20 14.63-0.42Q13.23-1.04 12.52-2.12Q11.82-3.20 11.82-4.61L11.82-4.61L15.25-4.61Q15.25-3.47 15.84-2.92Q16.44-2.38 17.76-2.38L17.76-2.38Q18.61-2.38 19.11-2.75Q19.60-3.12 19.60-3.78Z"></path></g></g><style>@media (prefers-color-scheme: light) { :root { filter: contrast(1) brightness(1); } }
</style></svg>